<svg width="979" height="95" viewBox="0 0 979 95" fill="none" xmlns="http://www.w3.org/2000/svg">
<path d="M0.48 93V87.24H3.168C4.87467 87.24 6.41067 87.0693 7.776 86.728C9.22667 86.3013 10.3787 85.4907 11.232 84.296C12.1707 83.1013 12.64 81.3093 12.64 78.92V15.816C12.64 13.3413 12.1707 11.5067 11.232 10.312C10.3787 9.11733 9.22667 8.34933 7.776 8.008C6.41067 7.58133 4.87467 7.368 3.168 7.368H0.48V1.60799H36.832C44.4267 1.60799 50.6987 2.54666 55.648 4.424C60.5973 6.216 64.2667 8.904 66.656 12.488C69.1307 16.072 70.368 20.5947 70.368 26.056C70.368 30.5787 69.4293 34.4187 67.552 37.576C65.76 40.648 63.456 43.1653 60.64 45.128C57.824 47.0053 54.9227 48.4987 51.936 49.608L68.832 76.872C69.9413 78.664 71.008 80.2 72.032 81.48C73.056 82.76 74.08 83.8267 75.104 84.68C76.128 85.5333 77.1947 86.1733 78.304 86.6C79.4987 87.0267 80.736 87.24 82.016 87.24H82.528V93H79.968C76.0427 93 72.7147 92.872 69.984 92.616C67.3387 92.2747 65.12 91.72 63.328 90.952C61.536 90.0987 59.9147 88.904 58.464 87.368C57.0987 85.832 55.6907 83.8693 54.24 81.48L37.6 52.808H27.488V78.92C27.488 81.3093 27.9147 83.1013 28.768 84.296C29.7067 85.4907 30.8587 86.3013 32.224 86.728C33.6747 87.0693 35.2533 87.24 36.96 87.24H39.648V93H0.48ZM35.936 46.408C40.7147 46.408 44.4267 45.6827 47.072 44.232C49.7173 42.7813 51.5947 40.6053 52.704 37.704C53.8987 34.8027 54.496 31.176 54.496 26.824C54.496 22.3013 53.856 18.6747 52.576 15.944C51.3813 13.2133 49.4187 11.2507 46.688 10.056C43.9573 8.776 40.3307 8.13599 35.808 8.13599H27.488V46.408H35.936ZM113.11 93V87.24H115.798C117.59 87.24 119.169 87.0267 120.534 86.6C121.985 86.1733 123.137 85.32 123.99 84.04C124.843 82.76 125.27 80.84 125.27 78.28V16.328C125.27 13.6827 124.843 11.7627 123.99 10.568C123.137 9.28799 121.985 8.43466 120.534 8.008C119.169 7.58133 117.59 7.368 115.798 7.368H113.11V1.60799H152.278V7.368H149.59C147.883 7.368 146.305 7.58133 144.854 8.008C143.403 8.43466 142.251 9.28799 141.398 10.568C140.63 11.7627 140.246 13.6827 140.246 16.328V78.28C140.246 80.84 140.63 82.76 141.398 84.04C142.251 85.32 143.403 86.1733 144.854 86.6C146.305 87.0267 147.883 87.24 149.59 87.24H152.278V93H113.11ZM231.251 94.28C222.376 94.28 214.91 92.3173 208.851 88.392C202.878 84.4667 198.355 79.0053 195.283 72.008C192.296 64.9253 190.803 56.648 190.803 47.176C190.803 37.96 192.382 29.8533 195.539 22.856C198.782 15.7733 203.518 10.2693 209.747 6.34399C215.976 2.33333 223.656 0.327995 232.787 0.327995C238.846 0.327995 243.838 0.967995 247.763 2.24799C251.774 3.528 254.718 5.27733 256.595 7.49599C258.558 9.62933 259.539 12.0613 259.539 14.792C259.539 17.608 258.387 19.912 256.083 21.704C253.779 23.496 250.792 24.392 247.123 24.392C247.123 21.6613 246.654 19.016 245.715 16.456C244.776 13.896 243.24 11.7627 241.107 10.056C238.974 8.34933 236.072 7.49599 232.403 7.49599C226.259 7.49599 221.31 9.032 217.555 12.104C213.886 15.176 211.198 19.6987 209.491 25.672C207.87 31.56 207.059 38.728 207.059 47.176C207.059 54.9413 207.955 61.6827 209.747 67.4C211.539 73.1173 214.355 77.5547 218.195 80.712C222.12 83.784 227.24 85.32 233.555 85.32C237.736 85.32 241.278 84.808 244.179 83.784C247.08 82.6747 249.555 81.2667 251.603 79.56C253.651 77.768 255.4 75.9333 256.851 74.056C257.534 74.568 258.088 75.2507 258.515 76.104C258.942 76.9573 259.155 77.9813 259.155 79.176C259.155 80.8827 258.6 82.632 257.491 84.424C256.467 86.1307 254.846 87.752 252.627 89.288C250.408 90.7387 247.507 91.9333 243.923 92.872C240.424 93.8107 236.2 94.28 231.251 94.28ZM295.495 93V87.24H298.183C299.975 87.24 301.554 87.0267 302.919 86.6C304.37 86.1733 305.522 85.32 306.375 84.04C307.228 82.76 307.655 80.84 307.655 78.28V15.816C307.655 13.3413 307.186 11.5067 306.247 10.312C305.394 9.11733 304.242 8.34933 302.791 8.008C301.426 7.58133 299.89 7.368 298.183 7.368H295.495V1.60799H334.663V7.368H331.975C330.268 7.368 328.69 7.58133 327.239 8.008C325.788 8.43466 324.636 9.28799 323.783 10.568C322.93 11.7627 322.503 13.6827 322.503 16.328V41.928H361.927V16.328C361.927 13.6827 361.5 11.7627 360.647 10.568C359.794 9.28799 358.642 8.43466 357.191 8.008C355.826 7.58133 354.247 7.368 352.455 7.368H349.767V1.60799H388.935V7.368H386.247C384.54 7.368 382.962 7.58133 381.511 8.008C380.06 8.43466 378.908 9.28799 378.055 10.568C377.202 11.7627 376.775 13.6827 376.775 16.328V78.92C376.775 81.3093 377.202 83.1013 378.055 84.296C378.994 85.4907 380.146 86.3013 381.511 86.728C382.962 87.0693 384.54 87.24 386.247 87.24H388.935V93H349.767V87.24H352.455C354.247 87.24 355.826 87.0267 357.191 86.6C358.642 86.1733 359.794 85.32 360.647 84.04C361.5 82.76 361.927 80.84 361.927 78.28V48.712H322.503V78.28C322.503 80.84 322.93 82.76 323.783 84.04C324.636 85.32 325.788 86.1733 327.239 86.6C328.69 87.0267 330.268 87.24 331.975 87.24H334.663V93H295.495ZM499.728 93V87.24H503.312C505.019 87.24 506.597 87.0693 508.048 86.728C509.499 86.3013 510.651 85.4907 511.504 84.296C512.357 83.016 512.784 81.1813 512.784 78.792V8.392H501.008C498.533 8.392 496.571 8.86133 495.12 9.8C493.669 10.6533 492.603 11.848 491.92 13.384C491.237 14.92 490.768 16.6267 490.512 18.504L489.744 24.648H482.576L483.216 1.60799H557.456L558.096 24.648H550.928L550.16 18.504C549.989 16.6267 549.52 14.92 548.752 13.384C548.069 11.848 547.003 10.6533 545.552 9.8C544.101 8.86133 542.096 8.392 539.536 8.392H527.76V78.28C527.76 80.84 528.144 82.76 528.912 84.04C529.765 85.32 530.917 86.1733 532.368 86.6C533.819 87.0267 535.397 87.24 537.104 87.24H540.688V93H499.728ZM579.658 93V87.24H581.834C583.541 87.24 584.906 86.984 585.93 86.472C587.039 85.96 588.021 85.0213 588.874 83.656C589.813 82.2053 590.751 80.1147 591.69 77.384L619.978 1.60799H632.01L660.298 79.816C661.066 81.7787 661.834 83.3147 662.602 84.424C663.455 85.448 664.437 86.1733 665.546 86.6C666.741 87.0267 668.106 87.24 669.642 87.24H671.434V93H634.314V87.24H637.77C639.989 87.24 641.738 86.7707 643.018 85.832C644.298 84.8933 644.938 83.4 644.938 81.352C644.938 80.84 644.895 80.328 644.81 79.816C644.725 79.304 644.597 78.7493 644.426 78.152C644.255 77.5547 644.085 77 643.914 76.488L638.922 62.536H605.898L601.418 75.336C601.162 76.0187 600.949 76.744 600.778 77.512C600.607 78.1947 600.437 78.8773 600.266 79.56C600.181 80.1573 600.138 80.7547 600.138 81.352C600.138 83.3147 600.821 84.808 602.186 85.832C603.551 86.7707 605.429 87.24 607.818 87.24H611.53V93H579.658ZM608.458 55.752H636.49L628.938 33.736C628.17 31.3467 627.359 29 626.506 26.696C625.738 24.392 625.055 22.1733 624.458 20.04C623.861 17.8213 623.306 15.688 622.794 13.64C622.453 15.176 622.069 16.712 621.642 18.248C621.215 19.6987 620.746 21.192 620.234 22.728C619.807 24.264 619.295 25.8853 618.698 27.592C618.186 29.2133 617.546 30.92 616.778 32.712L608.458 55.752ZM702.765 93V87.24H705.453C707.245 87.24 708.824 87.0267 710.189 86.6C711.64 86.1733 712.792 85.32 713.645 84.04C714.498 82.76 714.925 80.84 714.925 78.28V16.328C714.925 13.6827 714.498 11.7627 713.645 10.568C712.792 9.28799 711.64 8.43466 710.189 8.008C708.824 7.58133 707.245 7.368 705.453 7.368H702.765V1.60799H741.933V7.368H739.245C737.538 7.368 735.96 7.58133 734.509 8.008C733.144 8.34933 732.034 9.11733 731.181 10.312C730.328 11.5067 729.901 13.3413 729.901 15.816V86.216H754.733C757.122 86.216 759.085 85.704 760.621 84.68C762.157 83.5707 763.309 82.1627 764.077 80.456C764.845 78.664 765.4 76.7867 765.741 74.824L767.277 65.224H774.061L773.165 93H702.765ZM810.52 93V87.24H813.208C814.915 87.24 816.451 87.0693 817.816 86.728C819.267 86.3013 820.419 85.4907 821.272 84.296C822.211 83.1013 822.68 81.3093 822.68 78.92V16.328C822.68 13.6827 822.253 11.7627 821.4 10.568C820.547 9.28799 819.395 8.43466 817.944 8.008C816.579 7.58133 815 7.368 813.208 7.368H810.52V1.60799H876.824L877.464 24.264H870.168L869.528 18.632C869.357 16.7547 868.888 15.048 868.12 13.512C867.352 11.976 866.243 10.7387 864.792 9.8C863.341 8.86133 861.464 8.392 859.16 8.392H837.656V41.928H868.376V48.584H837.656V86.216H862.616C865.005 86.216 866.968 85.7467 868.504 84.808C870.04 83.8693 871.192 82.632 871.96 81.096C872.813 79.56 873.368 77.8533 873.624 75.976L874.52 70.344H881.816L880.92 93H810.52ZM945.926 94.28C941.318 94.28 937.307 93.8533 933.894 93C930.566 92.0613 927.793 90.7813 925.574 89.16C923.355 87.4533 921.734 85.4907 920.71 83.272C919.686 81.0533 919.174 78.7067 919.174 76.232C919.174 74.184 919.601 72.4773 920.454 71.112C921.393 69.6613 922.673 68.5947 924.294 67.912C925.915 67.144 927.75 66.76 929.798 66.76C929.969 70.6853 930.694 74.2267 931.974 77.384C933.254 80.5413 935.131 83.0587 937.606 84.936C940.166 86.728 943.366 87.624 947.206 87.624C952.753 87.624 957.062 86.2587 960.134 83.528C963.291 80.7973 964.87 77 964.87 72.136C964.87 69.064 964.187 66.4613 962.822 64.328C961.457 62.1093 959.323 60.104 956.422 58.312C953.521 56.4347 949.553 54.472 944.518 52.424C940.507 50.8027 936.966 49.0533 933.894 47.176C930.907 45.2133 928.433 43.1227 926.47 40.904C924.593 38.6853 923.185 36.2107 922.246 33.48C921.393 30.664 920.966 27.592 920.966 24.264C920.966 19.2293 922.203 14.9627 924.678 11.464C927.153 7.88 930.566 5.14933 934.918 3.272C939.355 1.30933 944.347 0.327995 949.894 0.327995C955.355 0.327995 959.921 1.01066 963.59 2.376C967.259 3.74133 970.033 5.53333 971.91 7.752C973.787 9.88533 974.726 12.232 974.726 14.792C974.726 17.608 973.702 19.8267 971.654 21.448C969.606 22.984 966.747 23.752 963.078 23.752C963.078 21.192 962.609 18.632 961.67 16.072C960.817 13.512 959.366 11.3787 957.318 9.672C955.27 7.96533 952.454 7.112 948.87 7.112C945.883 7.112 943.281 7.66666 941.062 8.77599C938.843 9.88533 937.137 11.464 935.942 13.512C934.747 15.56 934.15 18.0347 934.15 20.936C934.15 24.0933 934.747 26.824 935.942 29.128C937.137 31.3467 939.185 33.3947 942.086 35.272C945.073 37.1493 949.126 39.1547 954.246 41.288C959.537 43.4213 963.974 45.7253 967.558 48.2C971.142 50.6747 973.83 53.4907 975.622 56.648C977.414 59.8053 978.31 63.56 978.31 67.912C978.31 73.3733 976.987 78.0667 974.342 81.992C971.697 85.9173 967.942 88.9467 963.078 91.08C958.214 93.2133 952.497 94.28 945.926 94.28Z" fill="white"/>
</svg>
